# xmcd CD database file generated by Grip 3.0.0
# 
# Track frame offsets:
#       150
#       35904
#       75017
#       103938
#       126126
#       157440
#       185865
#       218091
#       250965
#       282107
# 
# Disc length: 4120 seconds
# 
# Revision: 1
# Processed by: cddbd v1.5.1PL2 Copyright (c) Steve Scherf et al.
# Submitted via: Grip 3.0.0
# 
DISCID=9310160a
DTITLE=Boogie House - Live! Cotton Club Jam CD2
DYEAR=2002
DGENRE=Blues
TTITLE0=Boogie Runner
TTITLE1=Rollin' Man
TTITLE2=Roll'em Pete
TTITLE3=Henry's Harp Train
TTITLE4=Now Is The Time
TTITLE5=Flip Flop and Fly
TTITLE6=Louise
TTITLE7=I Left That Town
TTITLE8=You Got Me Running
TTITLE9=Must Have Been The Boogie
EXTD=
EXTT0=
EXTT1=
EXTT2=
EXTT3=
EXTT4=
EXTT5=
EXTT6=
EXTT7=
EXTT8=
EXTT9=
PLAYORDER=
